<?xml version="1.0" encoding="UTF-8" standalone="no"?>
<!-- Created with Inkscape (http://www.inkscape.org/) -->

<svg xmlns:dc="http://purl.org/dc/elements/1.1/" xmlns:cc="http://creativecommons.org/ns#" xmlns:rdf="http://www.w3.org/1999/02/22-rdf-syntax-ns#" xmlns:svg="http://www.w3.org/2000/svg" xmlns="http://www.w3.org/2000/svg" xmlns:sodipodi="http://sodipodi.sourceforge.net/DTD/sodipodi-0.dtd" xmlns:inkscape="http://www.inkscape.org/namespaces/inkscape" version="1.1" width="513.81494" height="142.94733" id="svg3212" inkscape:version="0.48.3.1 r9886" sodipodi:docname="reon_logo.svg">
  <sodipodi:namedview pagecolor="#ffffff" bordercolor="#666666" borderopacity="1" objecttolerance="10" gridtolerance="10" guidetolerance="10" inkscape:pageopacity="0" inkscape:pageshadow="2" inkscape:window-width="1033" inkscape:window-height="758" id="namedview21" showgrid="false" fit-margin-top="0" fit-margin-left="0" fit-margin-right="0" fit-margin-bottom="0" inkscape:zoom="0.89702956" inkscape:cx="383.92145" inkscape:cy="32.922144" inkscape:window-x="325" inkscape:window-y="68" inkscape:window-maximized="0" inkscape:current-layer="svg3212" />
  <defs id="defs3214" />
  <metadata id="metadata3217">
    <rdf:RDF>
      <cc:Work rdf:about="">
        <dc:format>image/svg+xml</dc:format>
        <dc:type rdf:resource="http://purl.org/dc/dcmitype/StillImage" />
        <dc:title />
      </cc:Work>
    </rdf:RDF>
  </metadata>
  <g id="layer1" transform="translate(4.8540188e-7,-925.7719)" style="stroke:#ffffff">
    <g transform="matrix(1.2499999,0,0,-1.2499999,-70.832495,1511.6342)" id="SVG Document" style="font-size:16px;fill:none;stroke:#ffffff;font-family:Times New Roman">
      <g id="Group_7" style="stroke:#ffffff;stroke-width:16.50399970999999866;stroke-linecap:round">
        <g id="Group_8" style="stroke-linejoin:round;stroke:#ffffff">
          <path d="m 131.751,443.332 -50.125,0 c -9.189,0 -16.708,-7.52 -16.708,-16.708 l 0,-50.127" id="path110" style="fill:none;stroke:#ffffff" inkscape:connector-curvature="0" />
        </g>
        <g id="Group_9" style="stroke-linejoin:miter;stroke:#ffffff">
          <g id="Group_10" style="stroke:#ffffff">
            <path d="m 232.587,409.913 -66.834,0" id="path114" style="fill:none;stroke:#ffffff" inkscape:connector-curvature="0" />
          </g>
          <g id="Group_11" style="stroke:#ffffff">
            <path d="m 165.753,443.332 66.833,0" id="path117" style="fill:none;stroke:#ffffff" inkscape:connector-curvature="0" />
          </g>
          <g id="Group_12" style="stroke:#ffffff">
            <path d="m 232.587,376.497 -66.834,0" id="path120" style="fill:none;stroke:#ffffff" inkscape:connector-curvature="0" />
          </g>
        </g>
        <g id="Group_13" style="stroke-linejoin:round;stroke:#ffffff">
          <path d="m 392.632,376.497 0,50.125 c 0,9.19 7.518,16.71 16.708,16.71 l 33.419,0 c 9.188,0 16.707,-7.52 16.707,-16.71 l 0,-50.125" id="path123" style="fill:none;stroke:#ffffff" inkscape:connector-curvature="0" />
        </g>
        <g id="Group_14" style="stroke-linejoin:round;stroke:#ffffff">
          <path d="m 266.821,427.421 c 0,5.513 3.907,12.281 8.682,15.038 l 27.561,15.912 c 4.776,2.756 12.59,2.756 17.366,-10e-4 l 27.552,-15.91 c 4.775,-2.758 8.683,-9.526 8.683,-15.039 l 0,-31.821 c 0,-5.513 -3.908,-12.281 -8.683,-15.039 l -27.552,-15.91 c -4.775,-2.756 -12.59,-2.756 -17.366,0 l -27.561,15.91 c -4.775,2.758 -8.682,9.526 -8.682,15.039 l 0,31.821 z" id="path126" style="fill:none;marker-start:none;marker-end:none;stroke:#ffffff" inkscape:connector-curvature="0" />
        </g>
      </g>
    </g>
  </g>
</svg>
